<svg version="1.1" viewBox="0.0 0.0 960.0 540.0" fill="none" stroke="none" stroke-linecap="square" stroke-miterlimit="10" xmlns:xlink="http://www.w3.org/1999/xlink" xmlns="http://www.w3.org/2000/svg"><clipPath id="p.0"><path d="m0 0l960.0 0l0 540.0l-960.0 0l0 -540.0z" clip-rule="nonzero"/></clipPath><g clip-path="url(#p.0)"><path fill="#ffffff" d="m0 0l960.0 0l0 540.0l-960.0 0z" fill-rule="evenodd"/><path fill="#000000" d="m234.71774 138.32217c-9.026154 0.3728943 -16.9328 4.774185 -26.406494 12.979889c-9.473709 8.205704 -23.722015 27.302856 -30.43573 36.25435c-6.7137146 8.951477 -7.832611 11.859955 -9.846603 17.45459c-2.0139923 5.594635 -2.6102448 10.593002 -2.2373505 16.113174c0.3728943 5.520172 2.3860626 12.681244 4.474716 17.007874c2.0886536 4.3266296 3.954361 6.7885895 8.057205 8.951904c4.1028595 2.1633148 10.66684 4.102646 16.559906 4.0279846c5.8930664 -0.074661255 11.711884 -2.3126373 18.798492 -4.475952c7.086624 -2.1633148 15.88858 -8.727707 23.721176 -8.503937c7.832611 0.22377014 16.411621 7.6086273 23.27446 9.846603c6.8628235 2.237976 11.934845 3.730362 17.902557 3.581253c5.967743 -0.14910889 13.726288 -2.3126373 17.903809 -4.475952c4.1775208 -2.1633148 5.2219543 -4.2519684 7.1612854 -8.503937c1.939331 -4.2519684 4.0271606 -11.41304 4.474701 -17.007874c0.44754028 -5.5948334 -0.22296143 -11.190292 -1.7893982 -16.561142c-1.5664368 -5.3708496 -0.29882812 -6.3395844 -7.6092224 -15.663971c-7.3103943 -9.324371 -25.585846 -31.778183 -36.253113 -40.28232c-10.667236 -8.50415 -18.724243 -11.115433 -27.750397 -10.742538z" fill-rule="evenodd"/><path stroke="#000000" stroke-width="4.0" stroke-linejoin="round" stroke-linecap="butt" d="m234.71774 138.32217c-9.026154 0.3728943 -16.9328 4.774185 -26.406494 12.979889c-9.473709 8.205704 -23.722015 27.302856 -30.43573 36.25435c-6.7137146 8.951477 -7.832611 11.859955 -9.846603 17.45459c-2.0139923 5.594635 -2.6102448 10.593002 -2.2373505 16.113174c0.3728943 5.520172 2.3860626 12.681244 4.474716 17.007874c2.0886536 4.3266296 3.954361 6.7885895 8.057205 8.951904c4.1028595 2.1633148 10.66684 4.102646 16.559906 4.0279846c5.8930664 -0.074661255 11.711884 -2.3126373 18.798492 -4.475952c7.086624 -2.1633148 15.88858 -8.727707 23.721176 -8.503937c7.832611 0.22377014 16.411621 7.6086273 23.27446 9.846603c6.8628235 2.237976 11.934845 3.730362 17.902557 3.581253c5.967743 -0.14910889 13.726288 -2.3126373 17.903809 -4.475952c4.1775208 -2.1633148 5.2219543 -4.2519684 7.1612854 -8.503937c1.939331 -4.2519684 4.0271606 -11.41304 4.474701 -17.007874c0.44754028 -5.5948334 -0.22296143 -11.190292 -1.7893982 -16.561142c-1.5664368 -5.3708496 -0.29882812 -6.3395844 -7.6092224 -15.663971c-7.3103943 -9.324371 -25.585846 -31.778183 -36.253113 -40.28232c-10.667236 -8.50415 -18.724243 -11.115433 -27.750397 -10.742538z" fill-rule="evenodd"/><path fill="#ffffff" d="m185.03688 199.09767l0 0c0 -11.863129 9.616959 -21.480103 21.480087 -21.480103l0 0c5.696869 0 11.160416 2.2630768 15.188721 6.291382c4.02829 4.02829 6.2913666 9.491837 6.2913666 15.188721l0 0c0 11.863113 -9.616959 21.480087 -21.480087 21.480087l0 0c-11.863129 0 -21.480087 -9.616974 -21.480087 -21.480087z" fill-rule="evenodd"/><path stroke="#000000" stroke-width="1.0" stroke-linejoin="round" stroke-linecap="butt" d="m185.03688 199.09767l0 0c0 -11.863129 9.616959 -21.480103 21.480087 -21.480103l0 0c5.696869 0 11.160416 2.2630768 15.188721 6.291382c4.02829 4.02829 6.2913666 9.491837 6.2913666 15.188721l0 0c0 11.863113 -9.616959 21.480087 -21.480087 21.480087l0 0c-11.863129 0 -21.480087 -9.616974 -21.480087 -21.480087z" fill-rule="evenodd"/><path fill="#ffffff" d="m203.83537 257.46796l0 0c0 -14.089783 15.129089 -25.511795 33.791763 -25.511795l0 0c18.662659 0 33.791748 11.422012 33.791748 25.511795l0 0c0 14.089783 -15.129089 25.51181 -33.791748 25.51181l0 0c-18.662674 0 -33.791763 -11.422028 -33.791763 -25.51181z" fill-rule="evenodd"/><path stroke="#000000" stroke-width="4.0" stroke-linejoin="round" stroke-linecap="butt" d="m203.83537 257.46796l0 0c0 -14.089783 15.129089 -25.511795 33.791763 -25.511795l0 0c18.662659 0 33.791748 11.422012 33.791748 25.511795l0 0c0 14.089783 -15.129089 25.51181 -33.791748 25.51181l0 0c-18.662674 0 -33.791763 -11.422028 -33.791763 -25.51181z" fill-rule="evenodd"/><path fill="#ffffff" d="m262.41818 206.8301l0 0c5.1914062 -5.1914062 14.975494 -3.8242493 21.853394 3.05365l0 0c6.877899 6.877884 8.245056 16.661987 3.05365 21.853394l0 0c-5.1914062 5.1914062 -14.975494 3.824234 -21.853394 -3.05365l0 0c-6.877899 -6.877899 -8.245056 -16.661987 -3.05365 -21.853394z" fill-rule="evenodd"/><path stroke="#000000" stroke-width="1.0" stroke-linejoin="round" stroke-linecap="butt" d="m262.41818 206.8301l0 0c5.1914062 -5.1914062 14.975494 -3.8242493 21.853394 3.05365l0 0c6.877899 6.877884 8.245056 16.661987 3.05365 21.853394l0 0c-5.1914062 5.1914062 -14.975494 3.824234 -21.853394 -3.05365l0 0c-6.877899 -6.877899 -8.245056 -16.661987 -3.05365 -21.853394z" fill-rule="evenodd"/><path fill="#ffffff" d="m292.76035 184.25839l0 0c-8.761047 7.744705 -22.108215 7.0562286 -30.02594 -1.5487671c-7.9177246 -8.605011 -7.495331 -21.963257 0.9501953 -30.050858l14.852753 15.510101z" fill-rule="evenodd"/><path stroke="#000000" stroke-width="1.0" stroke-linejoin="round" stroke-linecap="butt" d="m292.76035 184.25839l0 0c-8.761047 7.744705 -22.108215 7.0562286 -30.02594 -1.5487671c-7.9177246 -8.605011 -7.495331 -21.963257 0.9501953 -30.050858l14.852753 15.510101z" fill-rule="evenodd"/><path fill="#000000" fill-opacity="0.0" d="m327.50656 178.2231l385.0709 0l0 112.755905l-385.0709 0z" fill-rule="evenodd"/><path fill="#000000" d="m396.6003 257.97684q1.25 0 1.96875 1.15625q0.71875 1.140625 0.71875 3.15625q0 3.84375 -1.828125 5.953125q-4.3125 5.28125 -8.734375 8.453125q-4.40625 3.171875 -10.453125 3.171875q-7.390625 0 -11.90625 -4.21875q-4.515625 -4.234375 -4.515625 -11.234375q0 -3.75 3.84375 -5.390625q4.21875 -1.8125 6.046875 -3.875q1.828125 -2.0625 1.828125 -5.046875q0 -1.734375 -0.734375 -2.59375q-0.71875 -0.859375 -1.765625 -0.859375q-2.59375 0 -5.71875 3.75q-3.109375 3.734375 -5.796875 9.640625q-2.6875 5.90625 -4.234375 12.140625q-1.046875 4.515625 -2.453125 6.109375q-1.390625 1.578125 -4.359375 1.578125q-2.96875 0 -4.375 -2.15625q-1.390625 -2.171875 -1.875 -6.671875q-0.46875 -4.515625 -0.46875 -13.25q0 -14.796875 3.015625 -30.828125q3.03125 -16.03125 8.9375 -26.921875q5.90625 -10.890625 14.15625 -10.890625q4.421875 0 7.15625 3.796875q2.734375 3.78125 2.734375 9.828125q0 9.703125 -5.671875 20.125q-5.65625 10.40625 -18.421875 24.328125q-0.296875 4.984375 -0.296875 10.265625q4.609375 -12.0 10.5625 -17.421875q5.953125 -5.421875 11.140625 -5.421875q4.796875 0 7.71875 3.265625q2.9375 3.265625 2.9375 8.0625q0 5.28125 -2.6875 9.703125q-2.6875 4.40625 -9.21875 7.859375q0.390625 2.59375 2.34375 4.1875q1.96875 1.578125 4.765625 1.578125q2.96875 0 5.75 -2.296875q2.78125 -2.3125 7.296875 -7.6875q1.15625 -1.34375 2.59375 -1.34375zm-30.71875 -59.328125q-1.734375 0 -3.84375 4.953125q-2.109375 4.9375 -4.078125 13.34375q-1.96875 8.390625 -3.21875 18.28125q5.953125 -7.015625 9.84375 -15.265625q3.890625 -8.265625 3.890625 -14.984375q0 -3.0625 -0.671875 -4.6875q-0.671875 -1.640625 -1.921875 -1.640625zm38.212494 29.65625q-4.03125 0 -6.046875 -1.859375q-2.015625 -1.875 -2.015625 -5.234375q0 -3.359375 2.640625 -5.609375q2.640625 -2.265625 6.578125 -2.265625q3.546875 0 5.75 1.734375q2.203125 1.71875 2.203125 4.890625q0 3.84375 -2.5 6.09375q-2.484375 2.25 -6.609375 2.25zm-0.765625 51.5625q-6.25 0 -9.078125 -4.421875q-2.828125 -4.421875 -2.828125 -11.703125q0 -4.328125 1.09375 -11.09375q1.109375 -6.765625 2.84375 -12.625q0.859375 -3.078125 2.296875 -4.21875q1.4375 -1.15625 4.609375 -1.15625q4.890625 0 4.890625 3.265625q0 2.390625 -1.8125 11.125q-2.3125 10.5625 -2.3125 14.3125q0 2.875 0.765625 4.421875q0.765625 1.53125 2.59375 1.53125q1.734375 0 4.328125 -2.390625q2.59375 -2.40625 6.90625 -7.59375q1.15625 -1.34375 2.59375 -1.34375q1.25 0 1.96875 1.15625q0.71875 1.140625 0.71875 3.15625q0 3.84375 -1.828125 5.953125q-9.5 11.625 -17.75 11.625zm18.615967 0q-3.640625 0 -5.140625 -3.84375q-1.484375 -3.84375 -1.484375 -12.28125q0 -12.484375 3.5625 -23.71875q0.859375 -2.78125 2.828125 -4.078125q1.96875 -1.296875 5.515625 -1.296875q1.921875 0 2.6875 0.484375q0.765625 0.46875 0.765625 1.8125q0 1.546875 -1.4375 6.921875q-0.953125 3.828125 -1.53125 6.71875q-0.578125 2.875 -0.96875 7.09375q3.171875 -8.25 7.109375 -13.421875q3.9375 -5.1875 7.71875 -7.390625q3.796875 -2.21875 6.96875 -2.21875q6.234375 0 6.234375 6.234375q0 3.75 -2.109375 13.546875q-1.828125 8.34375 -1.828125 11.03125q0 3.84375 2.796875 3.84375q1.921875 0 4.546875 -2.34375q2.640625 -2.359375 7.0625 -7.640625q1.15625 -1.34375 2.59375 -1.34375q1.25 0 1.96875 1.15625q0.71875 1.140625 0.71875 3.15625q0 3.84375 -1.828125 5.953125q-4.125 5.09375 -8.875 8.359375q-4.75 3.265625 -10.796875 3.265625q-4.90625 0 -7.40625 -2.828125q-2.484375 -2.84375 -2.484375 -8.21875q0 -2.6875 1.34375 -9.59375q1.25 -6.046875 1.25 -8.359375q0 -1.53125 -1.0625 -1.53125q-1.25 0 -3.5 3.21875q-2.25 3.21875 -4.609375 8.5q-2.34375 5.265625 -3.796875 11.125q-1.046875 4.515625 -2.4375 6.109375q-1.390625 1.578125 -4.375 1.578125zm89.75662 -29.953125q1.2499695 0 1.9218445 1.25q0.671875 1.25 0.671875 3.15625q0 4.609375 -2.7812195 5.484375q-5.765625 2.015625 -12.671875 2.296875q-1.828125 8.0625 -7.203125 12.921875q-5.375 4.84375 -12.1875 4.84375q-5.765625 0 -9.84375 -2.78125q-4.078125 -2.796875 -6.1875 -7.390625q-2.109375 -4.609375 -2.109375 -10.0q0 -7.28125 2.78125 -13.0q2.78125 -5.71875 7.671875 -8.921875q4.90625 -3.21875 10.859375 -3.21875q7.296875 0 11.75 5.046875q4.46875 5.03125 5.234375 12.421875q4.515625 -0.28125 10.75 -1.921875q0.765625 -0.1875 1.34375 -0.1875zm-31.484375 19.765625q3.078125 0 5.328125 -2.484375q2.25 -2.5 3.03125 -7.203125q-2.984375 -2.015625 -4.578125 -5.28125q-1.578125 -3.265625 -1.578125 -6.90625q0 -1.546875 0.296875 -3.078125l-0.484375 0q-3.84375 0 -6.390625 3.703125q-2.53125 3.6875 -2.53125 10.40625q0 5.28125 2.0625 8.0625q2.0625 2.78125 4.84375 2.78125zm81.311615 -11.703125q1.25 0 1.96875 1.15625q0.71875 1.140625 0.71875 3.15625q0 3.84375 -1.828125 5.953125q-4.3125 5.28125 -8.734375 8.453125q-4.40625 3.171875 -10.453125 3.171875q-7.390625 0 -11.90625 -4.21875q-4.515625 -4.234375 -4.515625 -11.234375q0 -3.75 3.84375 -5.390625q4.21875 -1.8125 6.046875 -3.875q1.828125 -2.0625 1.828125 -5.046875q0 -1.734375 -0.734375 -2.59375q-0.71875 -0.859375 -1.765625 -0.859375q-2.59375 0 -5.71875 3.75q-3.109375 3.734375 -5.796875 9.640625q-2.6875 5.90625 -4.234375 12.140625q-1.046875 4.515625 -2.453125 6.109375q-1.390625 1.578125 -4.359375 1.578125q-2.9687805 0 -4.3750305 -2.15625q-1.390625 -2.171875 -1.875 -6.671875q-0.46875 -4.515625 -0.46875 -13.25q0 -14.796875 3.015625 -30.828125q3.0312805 -16.03125 8.9375305 -26.921875q5.90625 -10.890625 14.15625 -10.890625q4.421875 0 7.15625 3.796875q2.734375 3.78125 2.734375 9.828125q0 9.703125 -5.671875 20.125q-5.65625 10.40625 -18.421875 24.328125q-0.296875 4.984375 -0.296875 10.265625q4.609375 -12.0 10.5625 -17.421875q5.953125 -5.421875 11.140625 -5.421875q4.796875 0 7.71875 3.265625q2.9375 3.265625 2.9375 8.0625q0 5.28125 -2.6875 9.703125q-2.6875 4.40625 -9.21875 7.859375q0.390625 2.59375 2.34375 4.1875q1.96875 1.578125 4.765625 1.578125q2.96875 0 5.75 -2.296875q2.78125 -2.3125 7.296875 -7.6875q1.15625 -1.34375 2.59375 -1.34375zm-30.71875 -59.328125q-1.734375 0 -3.84375 4.953125q-2.109375 4.9375 -4.078125 13.34375q-1.96875 8.390625 -3.21875 18.28125q5.953125 -7.015625 9.84375 -15.265625q3.890625 -8.265625 3.890625 -14.984375q0 -3.0625 -0.671875 -4.6875q-0.671875 -1.640625 -1.921875 -1.640625zm41.85309 81.21875q-5.65625 0 -9.640625 -2.828125q-3.984375 -2.84375 -6.0 -7.453125q-2.015625 -4.609375 -2.015625 -9.890625q0 -7.28125 2.734375 -13.0q2.734375 -5.71875 7.4375 -8.921875q4.703125 -3.21875 10.5625 -3.21875q5.65625 0 9.6875 2.828125q4.03125 2.828125 6.046875 7.4375q2.015625 4.609375 2.015625 9.890625q0 7.296875 -2.78125 13.015625q-2.78125 5.703125 -7.53125 8.921875q-4.75 3.21875 -10.515625 3.21875zm1.0625 -10.375q3.265625 0 5.515625 -3.546875q2.25 -3.546875 2.25 -10.375q0 -5.28125 -1.921875 -7.96875q-1.90625 -2.6875 -4.59375 -2.6875q-3.453125 0 -5.71875 3.515625q-2.25 3.5 -2.25 10.40625q0 5.46875 1.921875 8.0625q1.921875 2.59375 4.796875 2.59375zm32.831726 10.375q-4.21875 0 -6.390625 -2.296875q-2.15625 -2.3125 -2.15625 -6.0625q0 -4.3125 2.4375 -6.90625q2.453125 -2.59375 6.875 -2.59375q4.21875 0 6.375 2.0625q2.171875 2.0625 2.171875 6.09375q0 4.421875 -2.5 7.0625q-2.5 2.640625 -6.8125 2.640625zm29.6651 -51.5625q-4.03125 0 -6.046875 -1.859375q-2.015625 -1.875 -2.015625 -5.234375q0 -3.359375 2.640625 -5.609375q2.640625 -2.265625 6.578125 -2.265625q3.546875 0 5.75 1.734375q2.203125 1.71875 2.203125 4.890625q0 3.84375 -2.5 6.09375q-2.484375 2.25 -6.609375 2.25zm-0.765625 51.5625q-6.25 0 -9.078125 -4.421875q-2.828125 -4.421875 -2.828125 -11.703125q0 -4.328125 1.09375 -11.09375q1.109375 -6.765625 2.84375 -12.625q0.859375 -3.078125 2.296875 -4.21875q1.4375 -1.15625 4.609375 -1.15625q4.890625 0 4.890625 3.265625q0 2.390625 -1.8125 11.125q-2.3125 10.5625 -2.3125 14.3125q0 2.875 0.765625 4.421875q0.765625 1.53125 2.59375 1.53125q1.734375 0 4.328125 -2.390625q2.59375 -2.40625 6.90625 -7.59375q1.15625 -1.34375 2.59375 -1.34375q1.25 0 1.96875 1.15625q0.71875 1.140625 0.71875 3.15625q0 3.84375 -1.828125 5.953125q-9.5 11.625 -17.75 11.625zm28.022217 0q-5.65625 0 -9.640625 -2.828125q-3.984375 -2.84375 -6.0 -7.453125q-2.015625 -4.609375 -2.015625 -9.890625q0 -7.28125 2.734375 -13.0q2.734375 -5.71875 7.4375 -8.921875q4.703125 -3.21875 10.5625 -3.21875q5.65625 0 9.6875 2.828125q4.03125 2.828125 6.046875 7.4375q2.015625 4.609375 2.015625 9.890625q0 7.296875 -2.78125 13.015625q-2.78125 5.703125 -7.53125 8.921875q-4.75 3.21875 -10.515625 3.21875zm1.0625 -10.375q3.265625 0 5.515625 -3.546875q2.25 -3.546875 2.25 -10.375q0 -5.28125 -1.921875 -7.96875q-1.90625 -2.6875 -4.59375 -2.6875q-3.453125 0 -5.71875 3.515625q-2.25 3.5 -2.25 10.40625q0 5.46875 1.921875 8.0625q1.921875 2.59375 4.796875 2.59375z" fill-rule="nonzero"/><path fill="#000000" d="m737.70026 133.4573c10.243042 0.43632507 22.24231 4.489517 31.168457 9.592911c8.926147 5.103409 18.510681 12.91362 22.388367 21.027527c3.8776245 8.113907 3.9504395 20.485825 0.87750244 27.6559c-3.072937 7.1700745 -12.730347 12.06987 -19.315186 15.364532c-6.5849 3.2946625 -10.755859 3.379074 -20.19397 4.4034576c-9.43811 1.0243835 -25.825989 2.687683 -36.434753 1.7428436c-10.608765 -0.94485474 -20.266968 -3.6333466 -27.217773 -7.4119263c-6.9508057 -3.778595 -13.316345 -7.7750244 -14.4869995 -15.259567c-1.1706543 -7.484558 1.975769 -21.29094 7.463196 -29.64772c5.4874268 -8.356781 16.169617 -15.914963 25.461487 -20.49295c9.29187 -4.578003 20.046692 -7.411316 30.289673 -6.975006z" fill-rule="evenodd"/><path stroke="#000000" stroke-width="4.0" stroke-linejoin="round" stroke-linecap="butt" d="m737.70026 133.4573c10.243042 0.43632507 22.24231 4.489517 31.168457 9.592911c8.926147 5.103409 18.510681 12.91362 22.388367 21.027527c3.8776245 8.113907 3.9504395 20.485825 0.87750244 27.6559c-3.072937 7.1700745 -12.730347 12.06987 -19.315186 15.364532c-6.5849 3.2946625 -10.755859 3.379074 -20.19397 4.4034576c-9.43811 1.0243835 -25.825989 2.687683 -36.434753 1.7428436c-10.608765 -0.94485474 -20.266968 -3.6333466 -27.217773 -7.4119263c-6.9508057 -3.778595 -13.316345 -7.7750244 -14.4869995 -15.259567c-1.1706543 -7.484558 1.975769 -21.29094 7.463196 -29.64772c5.4874268 -8.356781 16.169617 -15.914963 25.461487 -20.49295c9.29187 -4.578003 20.046692 -7.411316 30.289673 -6.975006z" fill-rule="evenodd"/><path fill="#ffffff" d="m735.6928 172.355c8.487122 0.14645386 20.285645 1.8762665 27.679077 4.621933c7.3934326 2.7456512 14.925537 7.0964355 16.681396 11.852005c1.7558594 4.7555695 -2.3416748 12.950027 -6.1463013 16.681412c-3.8046265 3.7313995 -11.779358 4.5363007 -16.681396 5.7069244c-4.9020386 1.170639 -7.170288 0.9511566 -12.730774 1.3168945c-5.560425 0.36573792 -13.315735 1.3164825 -20.63208 0.8775177c-7.316284 -0.43896484 -16.900452 -0.95054626 -23.26587 -3.5112915c-6.3653564 -2.5607605 -13.755737 -7.463394 -14.926331 -11.853226c-1.1706543 -4.389847 3.4394531 -10.827637 7.902527 -14.485794c4.4630737 -3.6581573 11.855896 -5.595459 18.875854 -7.463196c7.0199585 -1.8677216 14.756714 -3.8896332 23.243896 -3.7431793z" fill-rule="evenodd"/><path stroke="#000000" stroke-width="4.0" stroke-linejoin="round" stroke-linecap="butt" d="m735.6928 172.355c8.487122 0.14645386 20.285645 1.8762665 27.679077 4.621933c7.3934326 2.7456512 14.925537 7.0964355 16.681396 11.852005c1.7558594 4.7555695 -2.3416748 12.950027 -6.1463013 16.681412c-3.8046265 3.7313995 -11.779358 4.5363007 -16.681396 5.7069244c-4.9020386 1.170639 -7.170288 0.9511566 -12.730774 1.3168945c-5.560425 0.36573792 -13.315735 1.3164825 -20.63208 0.8775177c-7.316284 -0.43896484 -16.900452 -0.95054626 -23.26587 -3.5112915c-6.3653564 -2.5607605 -13.755737 -7.463394 -14.926331 -11.853226c-1.1706543 -4.389847 3.4394531 -10.827637 7.902527 -14.485794c4.4630737 -3.6581573 11.855896 -5.595459 18.875854 -7.463196c7.0199585 -1.8677216 14.756714 -3.8896332 23.243896 -3.7431793z" fill-rule="evenodd"/><path fill="#ffffff" d="m722.33673 197.44096c1.609436 -5.7069397 5.1203003 -3.658371 8.339539 -3.9506683c3.2191772 -0.29231262 8.268494 0.80651855 10.975708 2.1968384c2.7072144 1.3903198 4.60907 2.925888 5.267517 6.1450806c0.65844727 3.2192078 -0.77459717 6.8730927 -1.3168945 13.17012c-0.54229736 6.2970276 -2.8148193 18.173645 -1.9368896 24.612045c0.8779297 6.4384003 4.467346 8.316711 7.204468 14.018356c2.7371216 5.701645 7.0962524 15.216446 9.218262 20.191483c2.1219482 4.975067 4.3918457 6.8783875 3.513733 9.658813c-0.8781738 2.7804565 -5.0511475 6.072876 -8.782532 7.023834c-3.7313843 0.95095825 -9.069519 0.43795776 -13.605835 -1.3181152c-4.536316 -1.7560425 -10.539001 -4.46286 -13.611938 -9.218231c-3.072937 -4.755371 -3.7287598 -10.607513 -4.8257446 -19.313965c-1.0969849 -8.706451 -1.6830444 -22.388763 -1.7562866 -32.924698c-0.07318115 -10.535919 -0.29248047 -24.58397 1.3168945 -30.290894z" fill-rule="evenodd"/><path stroke="#000000" stroke-width="4.0" stroke-linejoin="round" stroke-linecap="butt" d="m722.33673 197.44096c1.609436 -5.7069397 5.1203003 -3.658371 8.339539 -3.9506683c3.2191772 -0.29231262 8.268494 0.80651855 10.975708 2.1968384c2.7072144 1.3903198 4.60907 2.925888 5.267517 6.1450806c0.65844727 3.2192078 -0.77459717 6.8730927 -1.3168945 13.17012c-0.54229736 6.2970276 -2.8148193 18.173645 -1.9368896 24.612045c0.8779297 6.4384003 4.467346 8.316711 7.204468 14.018356c2.7371216 5.701645 7.0962524 15.216446 9.218262 20.191483c2.1219482 4.975067 4.3918457 6.8783875 3.513733 9.658813c-0.8781738 2.7804565 -5.0511475 6.072876 -8.782532 7.023834c-3.7313843 0.95095825 -9.069519 0.43795776 -13.605835 -1.3181152c-4.536316 -1.7560425 -10.539001 -4.46286 -13.611938 -9.218231c-3.072937 -4.755371 -3.7287598 -10.607513 -4.8257446 -19.313965c-1.0969849 -8.706451 -1.6830444 -22.388763 -1.7562866 -32.924698c-0.07318115 -10.535919 -0.29248047 -24.58397 1.3168945 -30.290894z" fill-rule="evenodd"/><path fill="#000000" fill-opacity="0.0" d="m731.29535 186.05171c-0.36572266 -1.3170929 -1.8286743 -6.5854645 -2.194397 -7.9025574" fill-rule="evenodd"/><path stroke="#000000" stroke-width="3.0" stroke-linejoin="round" stroke-linecap="butt" d="m731.29535 186.05171c-0.36572266 -1.3170929 -1.8286743 -6.5854645 -2.194397 -7.9025574" fill-rule="evenodd"/><path fill="#000000" fill-opacity="0.0" d="m739.4054 186.05171c0.73168945 -1.0976105 3.6583862 -5.4880676 4.3900757 -6.585678" fill-rule="evenodd"/><path stroke="#000000" stroke-width="3.0" stroke-linejoin="round" stroke-linecap="butt" d="m739.4054 186.05171c0.73168945 -1.0976105 3.6583862 -5.4880676 4.3900757 -6.585678" fill-rule="evenodd"/><path fill="#000000" fill-opacity="0.0" d="m745.98987 187.80675c0.9511719 -0.8779297 3.5119019 -4.0238953 5.706909 -5.267563c2.1950073 -1.2436523 6.2193604 -1.8286743 7.463196 -2.1944122" fill-rule="evenodd"/><path stroke="#000000" stroke-width="3.0" stroke-linejoin="round" stroke-linecap="butt" d="m745.98987 187.80675c0.9511719 -0.8779297 3.5119019 -4.0238953 5.706909 -5.267563c2.1950073 -1.2436523 6.2193604 -1.8286743 7.463196 -2.1944122" fill-rule="evenodd"/><path fill="#000000" fill-opacity="0.0" d="m722.724 189.12364c-1.0241699 -0.65844727 -3.291626 -3.1459808 -6.1450806 -3.9506836c-2.8534546 -0.8046875 -9.146423 -0.7312622 -10.975708 -0.8775177" fill-rule="evenodd"/><path stroke="#000000" stroke-width="3.0" stroke-linejoin="round" stroke-linecap="butt" d="m722.724 189.12364c-1.0241699 -0.65844727 -3.291626 -3.1459808 -6.1450806 -3.9506836c-2.8534546 -0.8046875 -9.146423 -0.7312622 -10.975708 -0.8775177" fill-rule="evenodd"/><path fill="#000000" fill-opacity="0.0" d="m718.7733 193.07562c-2.048584 -0.29270935 -7.4625854 -1.9757385 -12.291382 -1.7562561c-4.8287964 0.21948242 -13.901184 2.5609589 -16.681396 3.0731506" fill-rule="evenodd"/><path stroke="#000000" stroke-width="3.0" stroke-linejoin="round" stroke-linecap="butt" d="m718.7733 193.07562c-2.048584 -0.29270935 -7.4625854 -1.9757385 -12.291382 -1.7562561c-4.8287964 0.21948242 -13.901184 2.5609589 -16.681396 3.0731506" fill-rule="evenodd"/><path fill="#000000" fill-opacity="0.0" d="m718.3339 197.0262c-1.1705933 0.65844727 -4.9752197 2.194809 -7.0238037 3.9506683c-2.048523 1.7558441 -4.3896484 5.48703 -5.267517 6.584442" fill-rule="evenodd"/><path stroke="#000000" stroke-width="3.0" stroke-linejoin="round" stroke-linecap="butt" d="m718.3339 197.0262c-1.1705933 0.65844727 -4.9752197 2.194809 -7.0238037 3.9506683c-2.048523 1.7558441 -4.3896484 5.48703 -5.267517 6.584442" fill-rule="evenodd"/><path fill="#000000" fill-opacity="0.0" d="m753.45306 192.19688c1.8290405 -0.36573792 7.169861 -2.1213837 10.974487 -2.1944122c3.8046265 -0.073013306 9.877686 1.463562 11.85321 1.7562714" fill-rule="evenodd"/><path stroke="#000000" stroke-width="3.0" stroke-linejoin="round" stroke-linecap="butt" d="m753.45306 192.19688c1.8290405 -0.36573792 7.169861 -2.1213837 10.974487 -2.1944122c3.8046265 -0.073013306 9.877686 1.463562 11.85321 1.7562714" fill-rule="evenodd"/><path fill="#000000" fill-opacity="0.0" d="m753.0137 197.46434c1.6828613 0.21948242 7.024048 0.21928406 10.096985 1.3168945c3.072937 1.0976105 6.9505615 4.3906555 8.340698 5.2687836" fill-rule="evenodd"/><path stroke="#000000" stroke-width="3.0" stroke-linejoin="round" stroke-linecap="butt" d="m753.0137 197.46434c1.6828613 0.21948242 7.024048 0.21928406 10.096985 1.3168945c3.072937 1.0976105 6.9505615 4.3906555 8.340698 5.2687836" fill-rule="evenodd"/><path fill="#000000" fill-opacity="0.0" d="m750.3799 203.17128c0.73168945 1.0243835 3.6583862 5.1219025 4.3900757 6.146286" fill-rule="evenodd"/><path stroke="#000000" stroke-width="3.0" stroke-linejoin="round" stroke-linecap="butt" d="m750.3799 203.17128c0.73168945 1.0243835 3.6583862 5.1219025 4.3900757 6.146286" fill-rule="evenodd"/><path fill="#000000" d="m162.80315 321.22833c0 -1.8001099 33.418854 -3.5265198 92.904816 -4.799408c59.485947 -1.2728882 140.16621 -1.9879761 224.29204 -1.9879761l0 0c175.18298 0 317.19684 3.0388184 317.19684 6.787384l0 0c0 3.7485962 -142.01385 6.7874146 -317.19684 6.7874146l0 0c-175.18298 0 -317.19684 -3.0388184 -317.19684 -6.7874146z" fill-rule="evenodd"/><path stroke="#000000" stroke-width="1.0" stroke-linejoin="round" stroke-linecap="butt" d="m162.80315 321.22833c0 -1.8001099 33.418854 -3.5265198 92.904816 -4.799408c59.485947 -1.2728882 140.16621 -1.9879761 224.29204 -1.9879761l0 0c175.18298 0 317.19684 3.0388184 317.19684 6.787384l0 0c0 3.7485962 -142.01385 6.7874146 -317.19684 6.7874146l0 0c-175.18298 0 -317.19684 -3.0388184 -317.19684 -6.7874146z" fill-rule="evenodd"/><path fill="#000000" fill-opacity="0.0" d="m208.11023 343.15485l543.77954 0l0 63.433075l-543.77954 0z" fill-rule="evenodd"/><path fill="#000000" d="m225.06018 375.33548q-0.703125 0 -1.125 -0.421875q-0.40625 -0.4375 -0.40625 -1.140625l0 -14.03125q0 -0.703125 0.390625 -1.078125q0.390625 -0.390625 1.09375 -0.390625l8.421875 0q1.46875 0 1.46875 1.25q0 1.21875 -1.46875 1.21875l-6.859375 0l0 4.609375l6.375 0q1.46875 0 1.46875 1.25q0 1.21875 -1.46875 1.21875l-6.375 0l0 5.953125q0 0.703125 -0.40625 1.140625q-0.40625 0.421875 -1.109375 0.421875zm20.812698 -12.109375q0.6875 0 1.09375 0.390625q0.421875 0.375 0.421875 1.015625l0 9.3125q0 0.625 -0.421875 1.015625q-0.421875 0.375 -1.09375 0.375q-0.65625 0 -1.046875 -0.359375q-0.375 -0.359375 -0.375 -0.984375l0 -0.59375q-0.546875 0.953125 -1.484375 1.46875q-0.9375 0.515625 -2.109375 0.515625q-4.328125 0 -4.328125 -4.84375l0 -5.90625q0 -0.640625 0.40625 -1.015625q0.40625 -0.390625 1.078125 -0.390625q0.703125 0 1.109375 0.390625q0.40625 0.375 0.40625 1.015625l0 5.9375q0 1.234375 0.5 1.84375q0.515625 0.59375 1.59375 0.59375q1.25 0 2.0 -0.828125q0.765625 -0.828125 0.765625 -2.1875l0 -5.359375q0 -0.640625 0.40625 -1.015625q0.40625 -0.390625 1.078125 -0.390625zm6.1147156 12.109375q-0.640625 0 -1.0625 -0.359375q-0.421875 -0.375 -0.421875 -1.078125l0 -14.328125q0 -0.6875 0.421875 -1.046875q0.421875 -0.375 1.0625 -0.375q0.65625 0 1.078125 0.375q0.4375 0.359375 0.4375 1.046875l0 14.328125q0 0.703125 -0.4375 1.078125q-0.421875 0.359375 -1.078125 0.359375zm6.095993 0q-0.640625 0 -1.0625 -0.359375q-0.421875 -0.375 -0.421875 -1.078125l0 -14.328125q0 -0.6875 0.421875 -1.046875q0.421875 -0.375 1.0625 -0.375q0.65625 0 1.078125 0.375q0.4375 0.359375 0.4375 1.046875l0 14.328125q0 0.703125 -0.4375 1.078125q-0.421875 0.359375 -1.078125 0.359375zm12.799103 -11.25q0.1875 -0.4375 0.5 -0.640625q0.328125 -0.203125 0.71875 -0.203125q0.546875 0 0.984375 0.375q0.453125 0.375 0.453125 0.921875q0 0.265625 -0.140625 0.546875l-6.546875 13.734375q-0.421875 0.8125 -1.28125 0.8125q-0.546875 0 -0.96875 -0.34375q-0.421875 -0.34375 -0.421875 -0.875q0 -0.265625 0.140625 -0.609375l1.640625 -3.421875l-4.46875 -9.296875q-0.125 -0.234375 -0.125 -0.546875q0 -0.546875 0.46875 -0.921875q0.46875 -0.390625 1.078125 -0.390625q0.40625 0 0.734375 0.203125q0.34375 0.203125 0.53125 0.625l3.359375 7.421875l3.34375 -7.390625zm24.87793 -0.921875q1.921875 0 2.9375 1.140625q1.03125 1.140625 1.03125 3.6875l0 5.90625q0 0.703125 -0.421875 1.078125q-0.421875 0.359375 -1.09375 0.359375q-0.65625 0 -1.078125 -0.359375q-0.40625 -0.375 -0.40625 -1.078125l0 -5.90625q0 -1.3125 -0.46875 -1.875q-0.46875 -0.5625 -1.4375 -0.5625q-1.171875 0 -1.875 0.796875q-0.6875 0.796875 -0.6875 2.203125l0 5.34375q0 0.703125 -0.421875 1.078125q-0.421875 0.359375 -1.0625 0.359375q-0.65625 0 -1.09375 -0.359375q-0.421875 -0.375 -0.421875 -1.078125l0 -5.90625q0 -1.3125 -0.46875 -1.875q-0.46875 -0.5625 -1.421875 -0.5625q-1.1875 0 -1.875 0.796875q-0.671875 0.796875 -0.671875 2.203125l0 5.34375q0 0.703125 -0.4375 1.078125q-0.421875 0.359375 -1.078125 0.359375q-0.640625 0 -1.0625 -0.359375q-0.421875 -0.375 -0.421875 -1.078125l0 -9.28125q0 -0.671875 0.421875 -1.03125q0.4375 -0.359375 1.09375 -0.359375q0.625 0 1.015625 0.34375q0.390625 0.34375 0.390625 1.0l0 0.5625q0.5625 -0.953125 1.484375 -1.453125q0.921875 -0.515625 2.125 -0.515625q2.640625 0 3.515625 2.21875q0.53125 -1.015625 1.5625 -1.609375q1.03125 -0.609375 2.328125 -0.609375zm12.09256 0q2.453125 0 3.640625 1.21875q1.1875 1.21875 1.1875 3.6875l0 5.859375q0 0.640625 -0.390625 1.015625q-0.375 0.375 -1.046875 0.375q-0.625 0 -1.03125 -0.375q-0.390625 -0.390625 -0.390625 -1.015625l0 -0.53125q-0.40625 0.9375 -1.28125 1.46875q-0.875 0.515625 -2.03125 0.515625q-1.171875 0 -2.140625 -0.46875q-0.953125 -0.484375 -1.5 -1.328125q-0.546875 -0.84375 -0.546875 -1.875q0 -1.296875 0.65625 -2.03125q0.65625 -0.75 2.140625 -1.078125q1.5 -0.34375 4.109375 -0.34375l0.59375 0l0 -0.546875q0 -1.171875 -0.5 -1.71875q-0.5 -0.546875 -1.625 -0.546875q-0.703125 0 -1.421875 0.203125q-0.71875 0.203125 -1.703125 0.59375q-0.625 0.3125 -0.90625 0.3125q-0.4375 0 -0.71875 -0.3125q-0.265625 -0.3125 -0.265625 -0.8125q0 -0.40625 0.203125 -0.703125q0.203125 -0.3125 0.6875 -0.578125q0.828125 -0.453125 1.984375 -0.71875q1.171875 -0.265625 2.296875 -0.265625zm-0.734375 10.0625q1.203125 0 1.953125 -0.796875q0.75 -0.8125 0.75 -2.078125l0 -0.515625l-0.421875 0q-1.609375 0 -2.5 0.15625q-0.890625 0.140625 -1.28125 0.5q-0.375 0.359375 -0.375 0.984375q0 0.765625 0.53125 1.265625q0.546875 0.484375 1.34375 0.484375zm15.428711 -10.0625q2.109375 0 3.140625 1.203125q1.03125 1.203125 1.03125 3.625l0 5.90625q0 0.671875 -0.390625 1.0625q-0.390625 0.375 -1.09375 0.375q-0.6875 0 -1.109375 -0.375q-0.40625 -0.390625 -0.40625 -1.0625l0 -5.734375q0 -1.375 -0.515625 -1.984375q-0.515625 -0.625 -1.609375 -0.625q-1.296875 0 -2.078125 0.8125q-0.78125 0.8125 -0.78125 2.1875l0 5.34375q0 0.671875 -0.40625 1.0625q-0.40625 0.375 -1.109375 0.375q-0.6875 0 -1.09375 -0.375q-0.390625 -0.390625 -0.390625 -1.0625l0 -9.28125q0 -0.625 0.40625 -1.0q0.40625 -0.390625 1.109375 -0.390625q0.625 0 1.015625 0.375q0.390625 0.359375 0.390625 0.96875l0 0.640625q0.609375 -0.984375 1.609375 -1.515625q1.015625 -0.53125 2.28125 -0.53125zm12.305603 0q2.453125 0 3.640625 1.21875q1.1875 1.21875 1.1875 3.6875l0 5.859375q0 0.640625 -0.390625 1.015625q-0.375 0.375 -1.046875 0.375q-0.625 0 -1.03125 -0.375q-0.390625 -0.390625 -0.390625 -1.015625l0 -0.53125q-0.40625 0.9375 -1.28125 1.46875q-0.875 0.515625 -2.03125 0.515625q-1.171875 0 -2.140625 -0.46875q-0.953125 -0.484375 -1.5 -1.328125q-0.546875 -0.84375 -0.546875 -1.875q0 -1.296875 0.65625 -2.03125q0.65625 -0.75 2.140625 -1.078125q1.5 -0.34375 4.109375 -0.34375l0.59375 0l0 -0.546875q0 -1.171875 -0.5 -1.71875q-0.5 -0.546875 -1.625 -0.546875q-0.703125 0 -1.421875 0.203125q-0.71875 0.203125 -1.703125 0.59375q-0.625 0.3125 -0.90625 0.3125q-0.4375 0 -0.71875 -0.3125q-0.265625 -0.3125 -0.265625 -0.8125q0 -0.40625 0.203125 -0.703125q0.203125 -0.3125 0.6875 -0.578125q0.828125 -0.453125 1.984375 -0.71875q1.171875 -0.265625 2.296875 -0.265625zm-0.734375 10.0625q1.203125 0 1.953125 -0.796875q0.75 -0.8125 0.75 -2.078125l0 -0.515625l-0.421875 0q-1.609375 0 -2.5 0.15625q-0.890625 0.140625 -1.28125 0.5q-0.375 0.359375 -0.375 0.984375q0 0.765625 0.53125 1.265625q0.546875 0.484375 1.34375 0.484375zm18.55371 -10.0q0.671875 0 1.078125 0.390625q0.40625 0.375 0.40625 1.015625l0 9.484375q0 2.765625 -1.546875 4.171875q-1.53125 1.421875 -4.53125 1.421875q-2.609375 0 -4.359375 -0.984375q-0.890625 -0.53125 -0.890625 -1.28125q0 -0.515625 0.25 -0.828125q0.25 -0.3125 0.65625 -0.3125q0.21875 0 0.53125 0.09375q0.3125 0.109375 0.65625 0.265625q0.859375 0.359375 1.53125 0.546875q0.6875 0.1875 1.578125 0.1875q3.15625 0 3.15625 -3.0625l0 -1.546875q-0.53125 0.984375 -1.546875 1.53125q-1.0 0.53125 -2.296875 0.53125q-1.546875 0 -2.734375 -0.71875q-1.1875 -0.734375 -1.859375 -2.046875q-0.671875 -1.328125 -0.671875 -3.0625q0 -1.71875 0.65625 -3.046875q0.671875 -1.34375 1.859375 -2.078125q1.203125 -0.734375 2.75 -0.734375q1.296875 0 2.296875 0.546875q1.015625 0.546875 1.546875 1.53125l0 -0.625q0 -0.625 0.40625 -1.0q0.40625 -0.390625 1.078125 -0.390625zm-4.546875 9.3125q1.453125 0 2.25 -0.9375q0.8125 -0.9375 0.8125 -2.578125q0 -1.65625 -0.8125 -2.59375q-0.796875 -0.9375 -2.25 -0.9375q-1.40625 0 -2.234375 0.9375q-0.8125 0.9375 -0.8125 2.59375q0 1.640625 0.8125 2.578125q0.828125 0.9375 2.234375 0.9375zm18.410583 -0.5625q0.40625 0 0.65625 0.3125q0.265625 0.3125 0.265625 0.84375q0 0.75 -0.890625 1.25q-0.8125 0.453125 -1.859375 0.734375q-1.03125 0.265625 -1.953125 0.265625q-2.84375 0 -4.5 -1.625q-1.65625 -1.640625 -1.65625 -4.46875q0 -1.796875 0.71875 -3.1875q0.734375 -1.390625 2.03125 -2.15625q1.3125 -0.78125 2.96875 -0.78125q1.578125 0 2.75 0.703125q1.1875 0.703125 1.828125 1.96875q0.65625 1.265625 0.65625 3.0q0 1.03125 -0.921875 1.03125l-7.078125 0q0.15625 1.65625 0.9375 2.4375q0.796875 0.78125 2.3125 0.78125q0.765625 0 1.34375 -0.1875q0.59375 -0.203125 1.34375 -0.53125q0.71875 -0.390625 1.046875 -0.390625zm-4.140625 -6.6875q-1.234375 0 -1.96875 0.765625q-0.71875 0.765625 -0.875 2.203125l5.421875 0q-0.046875 -1.46875 -0.71875 -2.21875q-0.671875 -0.75 -1.859375 -0.75zm17.400208 -7.140625q0.671875 0 1.09375 0.390625q0.4375 0.390625 0.4375 1.015625l0 14.34375q0 0.65625 -0.40625 1.046875q-0.40625 0.375 -1.078125 0.375q-0.671875 0 -1.09375 -0.375q-0.40625 -0.390625 -0.40625 -1.046875l0 -0.59375q-0.515625 0.984375 -1.515625 1.53125q-1.0 0.546875 -2.265625 0.546875q-1.515625 0 -2.703125 -0.765625q-1.1875 -0.765625 -1.859375 -2.171875q-0.65625 -1.40625 -0.65625 -3.21875q0 -1.828125 0.65625 -3.1875q0.671875 -1.375 1.84375 -2.125q1.171875 -0.75 2.71875 -0.75q1.265625 0 2.25 0.53125q0.984375 0.53125 1.515625 1.484375l0 -5.6875q0 -0.59375 0.390625 -0.96875q0.40625 -0.375 1.078125 -0.375zm-4.453125 14.90625q1.453125 0 2.21875 -0.984375q0.78125 -0.984375 0.78125 -2.796875q0 -1.828125 -0.78125 -2.796875q-0.765625 -0.984375 -2.1875 -0.984375q-1.4375 0 -2.234375 0.96875q-0.796875 0.953125 -0.796875 2.765625q0 1.8125 0.796875 2.828125q0.796875 1.0 2.203125 1.0zm20.787292 2.328125q-1.75 0 -3.078125 -0.734375q-1.328125 -0.75 -2.0625 -2.109375q-0.71875 -1.375 -0.71875 -3.203125q0 -1.828125 0.75 -3.21875q0.765625 -1.40625 2.125 -2.171875q1.375 -0.78125 3.15625 -0.78125q0.9375 0 1.875 0.265625q0.953125 0.265625 1.671875 0.71875q0.765625 0.515625 0.765625 1.28125q0 0.53125 -0.25 0.859375q-0.25 0.3125 -0.65625 0.3125q-0.265625 0 -0.5625 -0.109375q-0.28125 -0.125 -0.5625 -0.296875q-0.53125 -0.3125 -1.015625 -0.484375q-0.46875 -0.1875 -1.09375 -0.1875q-1.5 0 -2.296875 0.96875q-0.796875 0.96875 -0.796875 2.796875q0 1.796875 0.796875 2.78125q0.796875 0.96875 2.296875 0.96875q0.59375 0 1.0625 -0.171875q0.46875 -0.1875 1.046875 -0.5q0.359375 -0.21875 0.625 -0.328125q0.265625 -0.109375 0.53125 -0.109375q0.375 0 0.640625 0.34375q0.265625 0.328125 0.265625 0.828125q0 0.40625 -0.1875 0.71875q-0.171875 0.296875 -0.578125 0.53125q-0.75 0.484375 -1.734375 0.765625q-0.984375 0.265625 -2.015625 0.265625zm15.774475 -12.15625q0.6875 0 1.09375 0.390625q0.421875 0.375 0.421875 1.015625l0 9.3125q0 0.625 -0.421875 1.015625q-0.421875 0.375 -1.09375 0.375q-0.65625 0 -1.046875 -0.359375q-0.375 -0.359375 -0.375 -0.984375l0 -0.59375q-0.546875 0.953125 -1.484375 1.46875q-0.9375 0.515625 -2.109375 0.515625q-4.328125 0 -4.328125 -4.84375l0 -5.90625q0 -0.640625 0.40625 -1.015625q0.40625 -0.390625 1.078125 -0.390625q0.703125 0 1.109375 0.390625q0.40625 0.375 0.40625 1.015625l0 5.9375q0 1.234375 0.5 1.84375q0.515625 0.59375 1.59375 0.59375q1.25 0 2.0 -0.828125q0.765625 -0.828125 0.765625 -2.1875l0 -5.359375q0 -0.640625 0.40625 -1.015625q0.40625 -0.390625 1.078125 -0.390625zm8.880341 12.15625q-2.625 0 -4.234375 -1.03125q-0.765625 -0.453125 -0.765625 -1.296875q0 -0.46875 0.265625 -0.765625q0.265625 -0.3125 0.65625 -0.3125q0.40625 0 1.125 0.390625q0.765625 0.359375 1.390625 0.546875q0.640625 0.1875 1.625 0.1875q1.015625 0 1.578125 -0.328125q0.5625 -0.34375 0.5625 -0.9375q0 -0.40625 -0.234375 -0.640625q-0.21875 -0.25 -0.8125 -0.453125q-0.578125 -0.203125 -1.78125 -0.46875q-2.140625 -0.4375 -3.0625 -1.21875q-0.921875 -0.796875 -0.921875 -2.1875q0 -1.0625 0.625 -1.90625q0.625 -0.859375 1.703125 -1.328125q1.09375 -0.46875 2.5 -0.46875q1.0 0 1.9375 0.265625q0.9375 0.25 1.671875 0.71875q0.78125 0.484375 0.78125 1.28125q0 0.484375 -0.265625 0.8125q-0.265625 0.3125 -0.65625 0.3125q-0.265625 0 -0.515625 -0.109375q-0.25 -0.109375 -0.625 -0.328125q-0.703125 -0.359375 -1.21875 -0.53125q-0.5 -0.1875 -1.234375 -0.1875q-0.890625 0 -1.40625 0.359375q-0.515625 0.359375 -0.515625 0.984375q0 0.609375 0.53125 0.921875q0.53125 0.3125 2.03125 0.625q1.609375 0.328125 2.515625 0.765625q0.921875 0.421875 1.3125 1.078125q0.40625 0.640625 0.40625 1.65625q0 1.625 -1.359375 2.609375q-1.359375 0.984375 -3.609375 0.984375zm13.3637085 -2.28125q1.203125 0.078125 1.203125 1.078125q0 0.578125 -0.46875 0.890625q-0.46875 0.296875 -1.328125 0.25l-0.65625 -0.046875q-4.03125 -0.296875 -4.03125 -4.328125l0 -5.234375l-1.203125 0q-0.640625 0 -1.0 -0.28125q-0.34375 -0.296875 -0.34375 -0.84375q0 -0.546875 0.34375 -0.828125q0.359375 -0.296875 1.0 -0.296875l1.203125 0l0 -2.203125q0 -0.65625 0.40625 -1.03125q0.40625 -0.390625 1.109375 -0.390625q0.671875 0 1.078125 0.390625q0.40625 0.375 0.40625 1.03125l0 2.203125l2.046875 0q0.640625 0 0.984375 0.296875q0.359375 0.28125 0.359375 0.828125q0 0.546875 -0.359375 0.84375q-0.34375 0.28125 -0.984375 0.28125l-2.046875 0l0 5.453125q0 1.78125 1.640625 1.890625l0.640625 0.046875zm8.105988 2.28125q-1.796875 0 -3.15625 -0.734375q-1.34375 -0.75 -2.09375 -2.140625q-0.75 -1.390625 -0.75 -3.234375q0 -1.859375 0.75 -3.234375q0.75 -1.375 2.09375 -2.125q1.359375 -0.75 3.15625 -0.75q1.8125 0 3.15625 0.75q1.359375 0.75 2.09375 2.125q0.734375 1.375 0.734375 3.234375q0 1.84375 -0.734375 3.234375q-0.734375 1.390625 -2.09375 2.140625q-1.34375 0.734375 -3.15625 0.734375zm-0.015625 -2.328125q1.46875 0 2.234375 -0.953125q0.765625 -0.96875 0.765625 -2.828125q0 -1.859375 -0.765625 -2.828125q-0.765625 -0.96875 -2.21875 -0.96875q-1.4375 0 -2.21875 0.96875q-0.78125 0.96875 -0.78125 2.828125q0 1.859375 0.765625 2.828125q0.78125 0.953125 2.21875 0.953125zm22.409332 -9.890625q1.921875 0 2.9375 1.140625q1.03125 1.140625 1.03125 3.6875l0 5.90625q0 0.703125 -0.421875 1.078125q-0.421875 0.359375 -1.09375 0.359375q-0.65625 0 -1.078125 -0.359375q-0.40625 -0.375 -0.40625 -1.078125l0 -5.90625q0 -1.3125 -0.46875 -1.875q-0.46875 -0.5625 -1.4375 -0.5625q-1.171875 0 -1.875 0.796875q-0.6875 0.796875 -0.6875 2.203125l0 5.34375q0 0.703125 -0.421875 1.078125q-0.421875 0.359375 -1.0625 0.359375q-0.65625 0 -1.09375 -0.359375q-0.421875 -0.375 -0.421875 -1.078125l0 -5.90625q0 -1.3125 -0.46875 -1.875q-0.46875 -0.5625 -1.421875 -0.5625q-1.1875 0 -1.875 0.796875q-0.671875 0.796875 -0.671875 2.203125l0 5.34375q0 0.703125 -0.4375 1.078125q-0.421875 0.359375 -1.078125 0.359375q-0.640625 0 -1.0625 -0.359375q-0.421875 -0.375 -0.421875 -1.078125l0 -9.28125q0 -0.671875 0.421875 -1.03125q0.4375 -0.359375 1.09375 -0.359375q0.625 0 1.015625 0.34375q0.390625 0.34375 0.390625 1.0l0 0.5625q0.5625 -0.953125 1.484375 -1.453125q0.921875 -0.515625 2.125 -0.515625q2.640625 0 3.515625 2.21875q0.53125 -1.015625 1.5625 -1.609375q1.03125 -0.609375 2.328125 -0.609375zm15.268402 12.03125q-0.703125 0 -1.09375 -0.375q-0.390625 -0.390625 -0.390625 -1.09375l0 -13.984375q0 -0.703125 0.390625 -1.078125q0.390625 -0.390625 1.09375 -0.390625l8.65625 0q0.703125 0 1.078125 0.3125q0.390625 0.3125 0.390625 0.890625q0 0.59375 -0.390625 0.921875q-0.375 0.328125 -1.078125 0.328125l-7.125 0l0 4.65625l6.65625 0q0.6875 0 1.0625 0.3125q0.390625 0.3125 0.390625 0.90625q0 0.578125 -0.390625 0.890625q-0.375 0.3125 -1.0625 0.3125l-6.65625 0l0 4.9375l7.125 0q0.703125 0 1.078125 0.328125q0.390625 0.328125 0.390625 0.921875q0 0.578125 -0.390625 0.890625q-0.375 0.3125 -1.078125 0.3125l-8.65625 0zm18.222443 0.125q-0.734375 0 -1.15625 -0.421875q-0.40625 -0.421875 -0.40625 -1.125l0 -12.953125l-4.375 0q-1.4375 0 -1.4375 -1.265625q0 -1.28125 1.4375 -1.28125l11.828125 0q1.453125 0 1.453125 1.28125q0 1.265625 -1.453125 1.265625l-4.359375 0l0 12.953125q0 0.703125 -0.421875 1.125q-0.421875 0.421875 -1.109375 0.421875zm10.618225 -0.125q-0.6875 0 -1.078125 -0.375q-0.375 -0.390625 -0.375 -1.0625l0 -14.0625q0 -0.703125 0.40625 -1.125q0.421875 -0.421875 1.125 -0.421875q0.71875 0 1.140625 0.421875q0.421875 0.421875 0.421875 1.125l0 12.953125l6.734375 0q1.453125 0 1.453125 1.28125q0 1.265625 -1.453125 1.265625l-8.375 0zm22.355164 0.1875q-2.625 0 -4.234375 -1.03125q-0.765625 -0.453125 -0.765625 -1.296875q0 -0.46875 0.265625 -0.765625q0.265625 -0.3125 0.65625 -0.3125q0.40625 0 1.125 0.390625q0.765625 0.359375 1.390625 0.546875q0.640625 0.1875 1.625 0.1875q1.015625 0 1.578125 -0.328125q0.5625 -0.34375 0.5625 -0.9375q0 -0.40625 -0.234375 -0.640625q-0.21875 -0.25 -0.8125 -0.453125q-0.578125 -0.203125 -1.78125 -0.46875q-2.140625 -0.4375 -3.0625 -1.21875q-0.921875 -0.796875 -0.921875 -2.1875q0 -1.0625 0.625 -1.90625q0.625 -0.859375 1.703125 -1.328125q1.09375 -0.46875 2.5 -0.46875q1.0 0 1.9375 0.265625q0.9375 0.25 1.671875 0.71875q0.78125 0.484375 0.78125 1.28125q0 0.484375 -0.265625 0.8125q-0.265625 0.3125 -0.65625 0.3125q-0.265625 0 -0.515625 -0.109375q-0.25 -0.109375 -0.625 -0.328125q-0.703125 -0.359375 -1.21875 -0.53125q-0.5 -0.1875 -1.234375 -0.1875q-0.890625 0 -1.40625 0.359375q-0.515625 0.359375 -0.515625 0.984375q0 0.609375 0.53125 0.921875q0.53125 0.3125 2.03125 0.625q1.609375 0.328125 2.515625 0.765625q0.921875 0.421875 1.3125 1.078125q0.40625 0.640625 0.40625 1.65625q0 1.625 -1.359375 2.609375q-1.359375 0.984375 -3.609375 0.984375zm16.671204 -3.40625q0.40625 0 0.65625 0.3125q0.265625 0.3125 0.265625 0.84375q0 0.75 -0.890625 1.25q-0.8125 0.453125 -1.859375 0.734375q-1.03125 0.265625 -1.953125 0.265625q-2.84375 0 -4.5 -1.625q-1.65625 -1.640625 -1.65625 -4.46875q0 -1.796875 0.71875 -3.1875q0.734375 -1.390625 2.03125 -2.15625q1.3125 -0.78125 2.96875 -0.78125q1.578125 0 2.75 0.703125q1.1875 0.703125 1.828125 1.96875q0.65625 1.265625 0.65625 3.0q0 1.03125 -0.921875 1.03125l-7.078125 0q0.15625 1.65625 0.9375 2.4375q0.796875 0.78125 2.3125 0.78125q0.765625 0 1.34375 -0.1875q0.59375 -0.203125 1.34375 -0.53125q0.71875 -0.390625 1.046875 -0.390625zm-4.140625 -6.6875q-1.234375 0 -1.96875 0.765625q-0.71875 0.765625 -0.875 2.203125l5.421875 0q-0.046875 -1.46875 -0.71875 -2.21875q-0.671875 -0.75 -1.859375 -0.75zm14.1502075 -2.0625q0.625 -0.0625 0.984375 0.25q0.359375 0.3125 0.359375 0.9375q0 0.65625 -0.3125 0.96875q-0.3125 0.3125 -1.125 0.40625l-0.71875 0.0625q-1.421875 0.15625 -2.078125 0.96875q-0.65625 0.8125 -0.65625 2.03125l0 5.046875q0 0.703125 -0.4375 1.078125q-0.421875 0.359375 -1.078125 0.359375q-0.640625 0 -1.0625 -0.359375q-0.421875 -0.375 -0.421875 -1.078125l0 -9.28125q0 -0.671875 0.421875 -1.03125q0.421875 -0.359375 1.046875 -0.359375q0.609375 0 1.0 0.34375q0.390625 0.34375 0.390625 1.0l0 0.953125q0.453125 -1.0625 1.34375 -1.625q0.90625 -0.578125 2.015625 -0.65625l0.328125 -0.015625zm11.552612 0.859375q0.1875 -0.4375 0.5 -0.640625q0.328125 -0.21875 0.71875 -0.21875q0.546875 0 0.984375 0.375q0.453125 0.359375 0.453125 0.90625q0 0.296875 -0.140625 0.578125l-4.4375 9.296875q-0.21875 0.453125 -0.625 0.703125q-0.390625 0.234375 -0.859375 0.234375q-0.46875 0 -0.890625 -0.234375q-0.40625 -0.25 -0.625 -0.703125l-4.46875 -9.296875q-0.125 -0.234375 -0.125 -0.546875q0 -0.546875 0.46875 -0.921875q0.46875 -0.390625 1.078125 -0.390625q0.859375 0 1.265625 0.828125l3.359375 7.421875l3.34375 -7.390625zm6.3288574 11.25q-0.640625 0 -1.0625 -0.359375q-0.421875 -0.375 -0.421875 -1.078125l0 -9.265625q0 -0.6875 0.421875 -1.046875q0.421875 -0.359375 1.0625 -0.359375q0.65625 0 1.078125 0.359375q0.4375 0.359375 0.4375 1.046875l0 9.265625q0 0.703125 -0.4375 1.078125q-0.421875 0.359375 -1.078125 0.359375zm0 -14.25q-0.828125 0 -1.3125 -0.4375q-0.46875 -0.453125 -0.46875 -1.171875q0 -0.71875 0.46875 -1.140625q0.484375 -0.4375 1.3125 -0.4375q0.78125 0 1.265625 0.4375q0.5 0.421875 0.5 1.140625q0 0.71875 -0.484375 1.171875q-0.46875 0.4375 -1.28125 0.4375zm9.814758 14.296875q-1.75 0 -3.078125 -0.734375q-1.328125 -0.75 -2.0625 -2.109375q-0.71875 -1.375 -0.71875 -3.203125q0 -1.828125 0.75 -3.21875q0.765625 -1.40625 2.125 -2.171875q1.375 -0.78125 3.15625 -0.78125q0.9375 0 1.875 0.265625q0.953125 0.265625 1.671875 0.71875q0.765625 0.515625 0.765625 1.28125q0 0.53125 -0.25 0.859375q-0.25 0.3125 -0.65625 0.3125q-0.265625 0 -0.5625 -0.109375q-0.28125 -0.125 -0.5625 -0.296875q-0.53125 -0.3125 -1.015625 -0.484375q-0.46875 -0.1875 -1.09375 -0.1875q-1.5 0 -2.296875 0.96875q-0.796875 0.96875 -0.796875 2.796875q0 1.796875 0.796875 2.78125q0.796875 0.96875 2.296875 0.96875q0.59375 0 1.0625 -0.171875q0.46875 -0.1875 1.046875 -0.5q0.359375 -0.21875 0.625 -0.328125q0.265625 -0.109375 0.53125 -0.109375q0.375 0 0.640625 0.34375q0.265625 0.328125 0.265625 0.828125q0 0.40625 -0.1875 0.71875q-0.171875 0.296875 -0.578125 0.53125q-0.75 0.484375 -1.734375 0.765625q-0.984375 0.265625 -2.015625 0.265625zm15.790039 -3.40625q0.40625 0 0.65625 0.3125q0.265625 0.3125 0.265625 0.84375q0 0.75 -0.890625 1.25q-0.8125 0.453125 -1.859375 0.734375q-1.03125 0.265625 -1.953125 0.265625q-2.84375 0 -4.5 -1.625q-1.65625 -1.640625 -1.65625 -4.46875q0 -1.796875 0.71875 -3.1875q0.734375 -1.390625 2.03125 -2.15625q1.3125 -0.78125 2.96875 -0.78125q1.578125 0 2.75 0.703125q1.1875 0.703125 1.828125 1.96875q0.65625 1.265625 0.65625 3.0q0 1.03125 -0.921875 1.03125l-7.078125 0q0.15625 1.65625 0.9375 2.4375q0.796875 0.78125 2.3125 0.78125q0.765625 0 1.34375 -0.1875q0.59375 -0.203125 1.34375 -0.53125q0.71875 -0.390625 1.046875 -0.390625zm-4.140625 -6.6875q-1.234375 0 -1.96875 0.765625q-0.71875 0.765625 -0.875 2.203125l5.421875 0q-0.046875 -1.46875 -0.71875 -2.21875q-0.671875 -0.75 -1.859375 -0.75zm20.841675 -2.125q1.546875 0 2.71875 0.75q1.171875 0.75 1.828125 2.125q0.671875 1.359375 0.671875 3.1875q0 1.8125 -0.671875 3.21875q-0.65625 1.40625 -1.84375 2.171875q-1.1875 0.765625 -2.703125 0.765625q-1.265625 0 -2.265625 -0.546875q-0.984375 -0.546875 -1.515625 -1.53125l0 0.59375q0 0.65625 -0.40625 1.046875q-0.40625 0.375 -1.078125 0.375q-0.671875 0 -1.078125 -0.375q-0.390625 -0.390625 -0.390625 -1.046875l0 -14.34375q0 -0.625 0.421875 -1.015625q0.421875 -0.390625 1.09375 -0.390625q0.671875 0 1.078125 0.375q0.40625 0.359375 0.40625 0.96875l0 5.671875q0.53125 -0.953125 1.515625 -1.46875q0.984375 -0.53125 2.21875 -0.53125zm-0.78125 9.890625q1.40625 0 2.203125 -1.0q0.796875 -1.015625 0.796875 -2.828125q0 -1.8125 -0.78125 -2.765625q-0.78125 -0.96875 -2.21875 -0.96875q-1.4375 0 -2.21875 0.984375q-0.78125 0.96875 -0.78125 2.796875q0 1.8125 0.78125 2.796875q0.78125 0.984375 2.21875 0.984375zm16.466309 -8.96875q0.1875 -0.4375 0.5 -0.640625q0.328125 -0.203125 0.71875 -0.203125q0.546875 0 0.984375 0.375q0.453125 0.375 0.453125 0.921875q0 0.265625 -0.140625 0.546875l-6.546875 13.734375q-0.421875 0.8125 -1.28125 0.8125q-0.546875 0 -0.96875 -0.34375q-0.421875 -0.34375 -0.421875 -0.875q0 -0.265625 0.140625 -0.609375l1.640625 -3.421875l-4.46875 -9.296875q-0.125 -0.234375 -0.125 -0.546875q0 -0.546875 0.46875 -0.921875q0.46875 -0.390625 1.078125 -0.390625q0.40625 0 0.734375 0.203125q0.34375 0.203125 0.53125 0.625l3.359375 7.421875l3.34375 -7.390625zm26.53418 9.265625q0.140625 0.3125 0.140625 0.625q0 0.546875 -0.4375 0.9375q-0.4375 0.375 -1.015625 0.375q-0.390625 0 -0.734375 -0.203125q-0.328125 -0.203125 -0.515625 -0.640625l-1.4375 -3.203125l-8.453125 0l-1.4375 3.203125q-0.1875 0.4375 -0.53125 0.640625q-0.328125 0.203125 -0.75 0.203125q-0.546875 0 -1.0 -0.375q-0.453125 -0.390625 -0.453125 -0.9375q0 -0.3125 0.140625 -0.625l6.625 -14.234375q0.21875 -0.484375 0.65625 -0.734375q0.453125 -0.25 0.953125 -0.25q0.5 0 0.9375 0.25q0.453125 0.25 0.671875 0.734375l6.640625 14.234375zm-11.390625 -4.515625l6.328125 0l-3.171875 -7.125l-3.15625 7.125zm26.682983 -10.6875q0.671875 0 1.0625 0.421875q0.40625 0.421875 0.40625 1.125l0 14.078125q0 0.703125 -0.421875 1.140625q-0.40625 0.421875 -1.046875 0.421875q-0.765625 0 -1.171875 -0.546875l-8.765625 -11.40625l0 10.390625q0 0.703125 -0.390625 1.140625q-0.375 0.421875 -1.046875 0.421875q-0.671875 0 -1.0625 -0.421875q-0.375 -0.4375 -0.375 -1.140625l0 -14.078125q0 -0.703125 0.40625 -1.125q0.40625 -0.421875 1.078125 -0.421875q0.75 0 1.15625 0.5625l8.734375 11.34375l0 -10.359375q0 -0.703125 0.390625 -1.125q0.390625 -0.421875 1.046875 -0.421875zm6.5997925 17.046875q-0.703125 0 -1.09375 -0.375q-0.390625 -0.390625 -0.390625 -1.09375l0 -13.984375q0 -0.703125 0.390625 -1.078125q0.390625 -0.390625 1.09375 -0.390625l8.65625 0q0.703125 0 1.078125 0.3125q0.390625 0.3125 0.390625 0.890625q0 0.59375 -0.390625 0.921875q-0.375 0.328125 -1.078125 0.328125l-7.125 0l0 4.65625l6.65625 0q0.6875 0 1.0625 0.3125q0.390625 0.3125 0.390625 0.90625q0 0.578125 -0.390625 0.890625q-0.375 0.3125 -1.0625 0.3125l-6.65625 0l0 4.9375l7.125 0q0.703125 0 1.078125 0.328125q0.390625 0.328125 0.390625 0.921875q0 0.578125 -0.390625 0.890625q-0.375 0.3125 -1.078125 0.3125l-8.65625 0zm14.104736 0q-0.6875 0 -1.078125 -0.375q-0.375 -0.390625 -0.375 -1.0625l0 -14.0625q0 -0.703125 0.40625 -1.125q0.421875 -0.421875 1.125 -0.421875q0.71875 0 1.140625 0.421875q0.421875 0.421875 0.421875 1.125l0 12.953125l6.734375 0q1.453125 0 1.453125 1.28125q0 1.265625 -1.453125 1.265625l-8.375 0zm13.351196 0q-0.703125 0 -1.09375 -0.375q-0.390625 -0.390625 -0.390625 -1.09375l0 -13.984375q0 -0.703125 0.390625 -1.078125q0.390625 -0.390625 1.09375 -0.390625l8.65625 0q0.703125 0 1.078125 0.3125q0.390625 0.3125 0.390625 0.890625q0 0.59375 -0.390625 0.921875q-0.375 0.328125 -1.078125 0.328125l-7.125 0l0 4.65625l6.65625 0q0.6875 0 1.0625 0.3125q0.390625 0.3125 0.390625 0.90625q0 0.578125 -0.390625 0.890625q-0.375 0.3125 -1.0625 0.3125l-6.65625 0l0 4.9375l7.125 0q0.703125 0 1.078125 0.328125q0.390625 0.328125 0.390625 0.921875q0 0.578125 -0.390625 0.890625q-0.375 0.3125 -1.078125 0.3125l-8.65625 0zm25.46405 -17.046875q0.671875 0 1.0625 0.421875q0.40625 0.421875 0.40625 1.125l0 14.078125q0 0.703125 -0.421875 1.140625q-0.40625 0.421875 -1.046875 0.421875q-0.765625 0 -1.171875 -0.546875l-8.765625 -11.40625l0 10.390625q0 0.703125 -0.390625 1.140625q-0.375 0.421875 -1.046875 0.421875q-0.671875 0 -1.0625 -0.421875q-0.375 -0.4375 -0.375 -1.140625l0 -14.078125q0 -0.703125 0.40625 -1.125q0.40625 -0.421875 1.078125 -0.421875q0.75 0 1.15625 0.5625l8.734375 11.34375l0 -10.359375q0 -0.703125 0.390625 -1.125q0.390625 -0.421875 1.046875 -0.421875z" fill-rule="nonzero"/></g></svg>